<svg xmlns="http://www.w3.org/2000/svg" width="383.35400390625" height="350.0994873046875" viewBox="-76.72834777832031 -81.39277648925781 383.35400390625 350.0994873046875"><title>Neo4j Graph Visualization</title><desc>Created using Neo4j (http://www.neo4j.com/)</desc><g class="layer relationships"><g class="relationship" transform="translate(27.104426520041525 -11.516421191922637) rotate(380.6286990791216)"><path class="outline" fill="#A5ABB6" stroke="none" d="M 24.018736134675446,-6.953439040707552 L 24.277555179777966,-5.987513214418485 A 149.2046434203883 149.2046434203883 0 0 1 51.27794513512778,-10.618633921556551 L 51.200088219194896,-11.615598464878644 A 150.2046434203883 150.2046434203883 0 0 0 24.018736134675446,-6.953439040707552 Z M 70.58539447256943,-11.87451436326893 L 70.53419208772479,-10.875826065657407 A 149.2046434203883 149.2046434203883 0 0 1 97.64863770476238,-6.967479148385513 L 96.94985088968713,-4.049997873882284 L 104.57255848111578,-5.823223458960456 L 98.58035345819604,-10.857454181056482 L 97.88156664312079,-7.939972906553255 A 150.2046434203883 150.2046434203883 0 0 0 70.58539447256943,-11.87451436326893"/><text text-anchor="middle" pointer-events="none" font-size="8px" fill="#000000" x="60.89523722939686" y="-8.558186984247271" font-family="sans-serif">trek</text></g><g class="relationship" transform="translate(147.72563927153317 33.891079401245925) rotate(376.00625253185734)"><path class="outline" fill="#A5ABB6" stroke="none" d="M 21.40063509461097,-12.933012701892217 L 21.90063509461097,-12.06698729810778 A 88.38534533028538 88.38534533028538 0 0 1 54.32439526244876,-23.121331806183306 L 54.19124069419624,-24.112427089671968 A 89.38534533028538 89.38534533028538 0 0 0 21.40063509461097,-12.933012701892217 Z M 73.59167013093605,-24.59331147313354 L 73.50778208034481,-23.596836287808785 A 88.38534533028538 88.38534533028538 0 0 1 106.43940205617497,-14.162475594460876 L 105.06996369015447,-11.493273735913814 L 112.89577945378821,-11.41198638350421 L 108.26531987753565,-17.72141140585696 L 106.89588151151514,-15.052209547309896 A 89.38534533028538 89.38534533028538 0 0 0 73.59167013093605,-24.59331147313354"/><text text-anchor="middle" pointer-events="none" font-size="8px" fill="#000000" x="63.89075602637052" y="-21.381084779771967" font-family="sans-serif">trek</text></g><g class="relationship" transform="translate(277.6256412069455 71.15464724049733) rotate(217.56097246457017)"><path class="outline" fill="#A5ABB6" stroke="none" d="M 21.40063509461097,12.933012701892217 L 21.90063509461097,12.06698729810778 A 43.934485998492576 43.934485998492576 0 0 0 32.86090136286605,16.551952335771723 L 32.61036977063646,17.52006076012041 A 44.934485998492576 44.934485998492576 0 0 1 21.40063509461097,12.933012701892217 Z M 51.997644902989556,18.21153475526043 L 51.81672001582372,17.228037838537233 A 43.934485998492576 43.934485998492576 0 0 0 63.06865531236799,13.535301706277137 L 61.757559248617326,10.836963863897587 L 69.58329295521204,10.925800531255517 L 64.81678339736887,17.133085496116536 L 63.505687333618205,14.434747653736986 A 44.934485998492576 44.934485998492576 0 0 1 51.997644902989556,18.21153475526043"/><text text-anchor="middle" pointer-events="none" font-size="8px" fill="#000000" x="42.28406771882091" y="21.424856902016785" transform="rotate(180 42.28406771882091 18.424856902016785)" font-family="sans-serif">trek</text></g><g class="relationship" transform="translate(204.6417284503322 15.028623303726341) rotate(466.6442298264729)"><path class="outline" fill="#A5ABB6" stroke="none" d="M 25 0.5 L 59.75809188599163 0.5 L 59.75809188599163 -0.5 L 25 -0.5 Z M 79.09402938599163 0.5 L 113.85212127198326 0.5 L 113.85212127198326 3.5 L 120.85212127198326 0 L 113.85212127198326 -3.5 L 113.85212127198326 -0.5 L 79.09402938599163 -0.5 Z"/><text text-anchor="middle" pointer-events="none" font-size="8px" fill="#000000" x="69.42606063599163" y="3" transform="rotate(180 69.42606063599163 0)" font-family="sans-serif">trek</text></g><g class="relationship" transform="translate(277.6256412069455 71.15464724049733) rotate(217.56097246457017)"><path class="outline" fill="#A5ABB6" stroke="none" d="M 25 0.5 L 26.42143957085414 0.5 L 26.42143957085414 -0.5 L 25 -0.5 Z M 58.64800207085414 0.5 L 60.06944164170828 0.5 L 60.06944164170828 3.5 L 67.06944164170828 0 L 60.06944164170828 -3.5 L 60.06944164170828 -0.5 L 58.64800207085414 -0.5 Z"/><text text-anchor="middle" pointer-events="none" font-size="8px" fill="#000000" x="42.53472082085414" y="3" transform="rotate(180 42.53472082085414 0)" font-family="sans-serif">twow…</text></g><g class="relationship" transform="translate(277.6256412069455 71.15464724049733) rotate(217.56097246457017)"><path class="outline" fill="#A5ABB6" stroke="none" d="M 21.40063509461097,-12.933012701892217 L 21.90063509461097,-12.06698729810778 A 43.934485998492576 43.934485998492576 0 0 1 31.5854351104899,-16.201311951732933 L 31.305872422905736,-17.161439393123253 A 44.934485998492576 44.934485998492576 0 0 0 21.40063509461097,-12.933012701892217 Z M 53.32437654279453,-17.946759811121495 L 53.1139257445089,-16.96915536069129 A 43.934485998492576 43.934485998492576 0 0 1 63.06865531236799,-13.535301706277137 L 61.757559248617326,-10.836963863897587 L 69.58329295521204,-10.925800531255517 L 64.81678339736887,-17.133085496116536 L 63.505687333618205,-14.434747653736986 A 44.934485998492576 44.934485998492576 0 0 0 53.32437654279453,-17.946759811121495"/><text text-anchor="middle" pointer-events="none" font-size="8px" fill="#000000" x="42.2840677188209" y="-15.424856902016785" transform="rotate(180 42.2840677188209 -18.424856902016785)" font-family="sans-serif">road</text></g><g class="relationship" transform="translate(147.72563927153317 33.891079401245925) rotate(376.00625253185734)"><path class="outline" fill="#A5ABB6" stroke="none" d="M 25 0.5 L 53.06370476250687 0.5 L 53.06370476250687 -0.5 L 25 -0.5 Z M 75.07542351250687 0.5 L 103.13912827501375 0.5 L 103.13912827501375 3.5 L 110.13912827501375 0 L 103.13912827501375 -3.5 L 103.13912827501375 -0.5 L 75.07542351250687 -0.5 Z"/><text text-anchor="middle" pointer-events="none" font-size="8px" fill="#000000" x="64.06956413750687" y="3" font-family="sans-serif">road</text></g><g class="relationship" transform="translate(147.72563927153317 33.891079401245925) rotate(376.00625253185734)"><path class="outline" fill="#A5ABB6" stroke="none" d="M 21.40063509461097,12.933012701892217 L 21.90063509461097,12.06698729810778 A 88.38534533028538 88.38534533028538 0 0 0 41.144955531724726,20.314241133054352 L 40.8626875591915,21.273576732144676 A 89.38534533028538 89.38534533028538 0 0 1 21.40063509461097,12.933012701892217 Z M 87.04450340544572,22.418299539068954 L 86.81011156449824,21.4461573350179 A 88.38534533028538 88.38534533028538 0 0 0 106.43940205617497,14.162475594460876 L 105.06996369015447,11.493273735913814 L 112.89577945378821,11.41198638350421 L 108.26531987753565,17.72141140585696 L 106.89588151151514,15.052209547309896 A 89.38534533028538 89.38534533028538 0 0 1 87.04450340544572,22.418299539068954"/><text text-anchor="middle" pointer-events="none" font-size="8px" fill="#000000" x="63.89075602637052" y="27.381084779771967" font-family="sans-serif">twowheeler</text></g><g class="relationship" transform="translate(27.104426520041525 -11.516421191922637) rotate(380.6286990791216)"><path class="outline" fill="#A5ABB6" stroke="none" d="M 24.018736134675446,6.953439040707552 L 24.277555179777966,5.987513214418485 A 149.2046434203883 149.2046434203883 0 0 0 49.949052077448236,10.508878980768941 L 49.86228864877408,11.505107924056944 A 150.2046434203883 150.2046434203883 0 0 1 24.018736134675446,6.953439040707552 Z M 71.92566778866063,11.799792958013256 L 71.86554242190563,10.801602124418508 A 149.2046434203883 149.2046434203883 0 0 0 97.64863770476238,6.967479148385513 L 96.94985088968713,4.049997873882284 L 104.57255848111578,5.823223458960456 L 98.58035345819604,10.857454181056482 L 97.88156664312079,7.939972906553255 A 150.2046434203883 150.2046434203883 0 0 1 71.92566778866063,11.799792958013256"/><text text-anchor="middle" pointer-events="none" font-size="8px" fill="#000000" x="60.89523722939692" y="14.558186984247271" font-family="sans-serif">road</text></g><g class="relationship" transform="translate(27.104426520041525 -11.516421191922637) rotate(330.393360307114)"><path class="outline" fill="#A5ABB6" stroke="none" d="M 21.40063509461097,12.933012701892217 L 21.90063509461097,12.06698729810778 A 34.11481863714153 34.11481863714153 0 0 0 22.645161027092776,12.484508189526409 L 22.166985148170507,13.3627722892236 A 35.11481863714153 35.11481863714153 0 0 1 21.40063509461097,12.933012701892217 Z M 53.269717555456864,14.588658769215392 L 52.86214964829594,13.675483867538574 A 34.11481863714153 34.11481863714153 0 0 0 53.63722734682995,13.31785679901033 L 52.346364590989296,10.609781219270454 L 60.17121415886311,10.757189632005451 L 55.35837768795082,16.928624238663502 L 54.067514932110164,14.220548658923624 A 35.11481863714153 35.11481863714153 0 0 1 53.269717555456864,14.588658769215392"/><text text-anchor="middle" pointer-events="none" font-size="8px" fill="#000000" x="37.59479066163787" y="20.110651059810948" font-family="sans-serif">Publi…</text></g><g class="relationship" transform="translate(99.04040555830554 -52.39277212365993) rotate(494.0549200637231)"><path class="outline" fill="#A5ABB6" stroke="none" d="M 24.018736134675446,-6.953439040707552 L 24.277555179777966,-5.987513214418485 A 192.39862173123404 192.39862173123404 0 0 1 62.22627591576725,-12.178206077165527 L 62.16469695686972,-13.176308292282329 A 193.39862173123404 193.39862173123404 0 0 0 24.018736134675446,-6.953439040707552 Z M 81.54135772646558,-13.399120920517277 L 81.50274641205017,-12.399866615348117 A 192.39862173123404 192.39862173123404 0 0 1 119.58378773788822,-7.083441579782805 L 118.8741703103866,-4.168575698376596 L 126.50341103241963,-5.913478562513419 L 120.52994430789036,-10.969929421657751 L 119.82032688038875,-8.055063540251542 A 193.39862173123404 193.39862173123404 0 0 0 81.54135772646558,-13.399120920517277"/><text text-anchor="middle" pointer-events="none" font-size="8px" fill="#000000" x="71.85598407708777" y="-10.030585288034302" transform="rotate(180 71.85598407708777 -13.030585288034302)" font-family="sans-serif">trek</text></g><g class="relationship" transform="translate(-5.813807266561315 55.97886825642587) rotate(420.5489256152813)"><path class="outline" fill="#A5ABB6" stroke="none" d="M 24.018736134675446,-6.953439040707552 L 24.277555179777966,-5.987513214418485 A 115.79854137603326 115.79854137603326 0 0 1 42.874845075206956,-9.373350407344432 L 42.77662641137381,-10.368515265081498 A 116.79854137603326 116.79854137603326 0 0 0 24.018736134675446,-6.953439040707552 Z M 62.171081253010755,-10.664238848510777 L 62.10324942842901,-9.666542079159527 A 115.79854137603326 115.79854137603326 0 0 1 80.79512313811504,-6.849284161826851 L 80.1073761318141,-3.929180729527903 L 87.72332231452941,-5.7312250525078205 L 81.7121191465163,-10.742755404892115 L 81.02437214021536,-7.822651972593167 A 116.79854137603326 116.79854137603326 0 0 0 62.171081253010755,-10.664238848510777"/><text text-anchor="middle" pointer-events="none" font-size="8px" fill="#000000" x="52.475327404745094" y="-7.4197356729744115" font-family="sans-serif">trek</text></g><g class="relationship" transform="translate(49.28265231510496 153.55585011477302) rotate(360.61233955937325)"><path class="outline" fill="#A5ABB6" stroke="none" d="M 24.018736134675446,6.953439040707552 L 24.277555179777966,5.987513214418485 A 118.85072217612426 118.85072217612426 0 0 0 43.639452936584206,9.48935658389776 L 43.54354327395994,10.484746626351125 A 119.85072217612426 119.85072217612426 0 0 1 24.018736134675446,6.953439040707552 Z M 62.937060234221605,10.776691928850767 L 62.8711559619097,9.778865978651524 A 118.85072217612426 118.85072217612426 0 0 0 82.32968820520952,6.861415950656936 L 81.64080801746563,3.9415796389891176 L 89.25745296372509,5.7406682311991455 L 83.24819512220138,10.754531032880696 L 82.55931493445749,7.834694721212876 A 119.85072217612426 119.85072217612426 0 0 1 62.937060234221605,10.776691928850767"/><text text-anchor="middle" pointer-events="none" font-size="8px" fill="#000000" x="53.241912310161666" y="13.523732296790243" font-family="sans-serif">trek</text></g><g class="relationship" transform="translate(49.28265231510496 153.55585011477302) rotate(360.61233955937325)"><path class="outline" fill="#A5ABB6" stroke="none" d="M 24.018736134675446,-6.953439040707552 L 24.277555179777966,-5.987513214418485 A 118.85072217612426 118.85072217612426 0 0 1 30.296561446087534,-7.433407704989875 L 30.0883858144713,-8.41149916615349 A 119.85072217612426 119.85072217612426 0 0 0 24.018736134675446,-6.953439040707552 Z M 76.44852696478556,-9.109393491344122 L 76.26988689509808,-8.125479000393781 A 118.85072217612426 118.85072217612426 0 0 1 82.32968820520952,-6.861415950656936 L 81.64080801746563,-3.9415796389891176 L 89.25745296372509,-5.7406682311991455 L 83.24819512220138,-10.754531032880696 L 82.55931493445749,-7.834694721212876 A 119.85072217612426 119.85072217612426 0 0 0 76.44852696478556,-9.109393491344122"/><text text-anchor="middle" pointer-events="none" font-size="8px" fill="#000000" x="53.241912310161666" y="-7.523732296790243" font-family="sans-serif">twowheeler</text></g><g class="relationship" transform="translate(-5.813807266561315 55.97886825642587) rotate(420.5489256152813)"><path class="outline" fill="#A5ABB6" stroke="none" d="M 24.018736134675446,6.953439040707552 L 24.277555179777966,5.987513214418485 A 115.79854137603326 115.79854137603326 0 0 0 29.541740335645947,7.266855481000633 L 29.32838114775159,8.243829307129587 A 116.79854137603326 116.79854137603326 0 0 1 24.018736134675446,6.953439040707552 Z M 75.67785331607362,8.950558736319039 L 75.49437987556126,7.96753406896498 A 115.79854137603326 115.79854137603326 0 0 0 80.79512313811504,6.849284161826851 L 80.1073761318141,3.929180729527903 L 87.72332231452941,5.7312250525078205 L 81.7121191465163,10.742755404892115 L 81.02437214021536,7.822651972593167 A 116.79854137603326 116.79854137603326 0 0 1 75.67785331607362,8.950558736319039"/><text text-anchor="middle" pointer-events="none" font-size="8px" fill="#000000" x="52.475327404745116" y="13.419735672974412" font-family="sans-serif">twowheeler</text></g><g class="relationship" transform="translate(99.04040555830554 -52.39277212365993) rotate(494.0549200637231)"><path class="outline" fill="#A5ABB6" stroke="none" d="M 24.018736134675446,6.953439040707552 L 24.277555179777966,5.987513214418485 A 192.39862173123404 192.39862173123404 0 0 0 48.763064027426196,10.87118732335793 L 48.63150945348945,11.862496253044469 A 193.39862173123404 193.39862173123404 0 0 1 24.018736134675446,6.953439040707552 Z M 95.10117789397769,12.396851944231372 L 94.9924532558678,11.402780038850352 A 192.39862173123404 192.39862173123404 0 0 0 119.58378773788822,7.083441579782805 L 118.8741703103866,4.168575698376596 L 126.50341103241963,5.913478562513419 L 120.52994430789036,10.969929421657751 L 119.82032688038875,8.055063540251542 A 193.39862173123404 193.39862173123404 0 0 1 95.10117789397769,12.396851944231372"/><text text-anchor="middle" pointer-events="none" font-size="8px" fill="#000000" x="71.85598407708777" y="16.030585288034302" transform="rotate(180 71.85598407708777 13.030585288034302)" font-family="sans-serif">twowheeler</text></g><g class="relationship" transform="translate(99.04040555830554 -52.39277212365993) rotate(392.556285104597)"><path class="outline" fill="#A5ABB6" stroke="none" d="M 25 0.5 L 49.476432352417085 0.5 L 49.476432352417085 -0.5 L 25 -0.5 Z M 68.81236985241708 0.5 L 93.28880220483417 0.5 L 93.28880220483417 3.5 L 100.28880220483417 0 L 93.28880220483417 -3.5 L 93.28880220483417 -0.5 L 68.81236985241708 -0.5 Z"/><text text-anchor="middle" pointer-events="none" font-size="8px" fill="#000000" x="59.144401102417085" y="3" font-family="sans-serif">trek</text></g><g class="relationship" transform="translate(27.104426520041525 -11.516421191922637) rotate(330.393360307114)"><path class="outline" fill="#A5ABB6" stroke="none" d="M 25 0.5 L 26.863395953347705 0.5 L 26.863395953347705 -0.5 L 25 -0.5 Z M 48.875114703347705 0.5 L 50.73851065669541 0.5 L 50.73851065669541 3.5 L 57.73851065669541 0 L 50.73851065669541 -3.5 L 50.73851065669541 -0.5 L 48.875114703347705 -0.5 Z"/><text text-anchor="middle" pointer-events="none" font-size="8px" fill="#000000" x="37.869255328347705" y="3" font-family="sans-serif">road</text></g><g class="relationship" transform="translate(27.104426520041525 -11.516421191922637) rotate(330.393360307114)"><path class="outline" fill="#A5ABB6" stroke="none" d="M 21.40063509461097,-12.933012701892217 L 21.90063509461097,-12.06698729810778 A 34.11481863714153 34.11481863714153 0 0 1 28.26892699903454,-14.91965700862319 L 27.9555993062263,-15.869302077540766 A 35.11481863714153 35.11481863714153 0 0 0 21.40063509461097,-12.933012701892217 Z M 47.30178159281244,-16.63181461161725 L 47.06416859911167,-15.660454706523076 A 34.11481863714153 34.11481863714153 0 0 1 53.63722734682995,-13.31785679901033 L 52.346364590989296,-10.609781219270454 L 60.17121415886311,-10.757189632005451 L 55.35837768795082,-16.928624238663502 L 54.067514932110164,-14.220548658923624 A 35.11481863714153 35.11481863714153 0 0 0 47.30178159281244,-16.63181461161725"/><text text-anchor="middle" pointer-events="none" font-size="8px" fill="#000000" x="37.59479066163786" y="-14.110651059810948" font-family="sans-serif">trek</text></g><g class="relationship" transform="translate(99.04040555830554 -52.39277212365993) rotate(420.56635206764474)"><path class="outline" fill="#A5ABB6" stroke="none" d="M 25 0.5 L 36.36776334230786 0.5 L 36.36776334230786 -0.5 L 25 -0.5 Z M 55.70370084230786 0.5 L 67.07146418461572 0.5 L 67.07146418461572 3.5 L 74.07146418461572 0 L 67.07146418461572 -3.5 L 67.07146418461572 -0.5 L 55.70370084230786 -0.5 Z"/><text text-anchor="middle" pointer-events="none" font-size="8px" fill="#000000" x="46.03573209230786" y="3" font-family="sans-serif">trek</text></g><g class="relationship" transform="translate(-5.813807266561315 55.97886825642587) rotate(469.21489026704677)"><path class="outline" fill="#A5ABB6" stroke="none" d="M 24.018736134675446,-6.953439040707552 L 24.277555179777966,-5.987513214418485 A 146.1800823012232 146.1800823012232 0 0 1 50.51437716333117,-10.507707205087911 L 50.43504099695277,-11.504555123631349 A 147.1800823012232 147.1800823012232 0 0 0 24.018736134675446,-6.953439040707552 Z M 69.821076607802,-11.766431607817424 L 69.7686963400832,-10.767804396314716 A 146.1800823012232 146.1800823012232 0 0 1 96.11804459014257,-6.957971288810246 L 95.42014581568273,-4.040277456241885 L 103.04231332854539,-5.815823120498676 L 97.04857628942236,-10.848229732234726 L 96.35067751496251,-7.930535899666365 A 147.1800823012232 147.1800823012232 0 0 0 69.821076607802,-11.766431607817424"/><text text-anchor="middle" pointer-events="none" font-size="8px" fill="#000000" x="60.13049568225171" y="-8.455097481115246" transform="rotate(180 60.13049568225171 -11.455097481115246)" font-family="sans-serif">trek</text></g><g class="relationship" transform="translate(-47.72834436137013 176.2403811600213) rotate(346.8387412571026)"><path class="outline" fill="#A5ABB6" stroke="none" d="M 21.40063509461097,12.933012701892217 L 21.90063509461097,12.06698729810778 A 51.821743055886294 51.821743055886294 0 0 0 24.01316081363694,13.222069953789592 L 23.553926052211562,14.110384894505195 A 52.821743055886294 52.821743055886294 0 0 1 21.40063509461097,12.933012701892217 Z M 68.91161448386865,15.612435895064316 L 68.51215572615612,14.695684728778303 A 51.821743055886294 51.821743055886294 0 0 0 70.69647202966176,13.68289494741067 L 69.37164402942867,10.991272616956715 L 77.19772880075985,11.04023333527578 L 72.4629093633059,17.27172472134928 L 71.1380813630728,14.580102390895323 A 52.821743055886294 52.821743055886294 0 0 1 68.91161448386865,15.612435895064316"/><text text-anchor="middle" pointer-events="none" font-size="8px" fill="#000000" x="46.079785455443535" y="22.48111868827658" font-family="sans-serif">twowheeler</text></g><g class="relationship" transform="translate(-47.72834436137013 176.2403811600213) rotate(346.8387412571026)"><path class="outline" fill="#A5ABB6" stroke="none" d="M 25 0.5 L 35.30809806893807 0.5 L 35.30809806893807 -0.5 L 25 -0.5 Z M 57.31981681893807 0.5 L 67.62791488787614 0.5 L 67.62791488787614 3.5 L 74.62791488787614 0 L 67.62791488787614 -3.5 L 67.62791488787614 -0.5 L 57.31981681893807 -0.5 Z"/><text text-anchor="middle" pointer-events="none" font-size="8px" fill="#000000" x="46.31395744393807" y="3" font-family="sans-serif">road</text></g><g class="relationship" transform="translate(-47.72834436137013 176.2403811600213) rotate(346.8387412571026)"><path class="outline" fill="#A5ABB6" stroke="none" d="M 21.40063509461097,-12.933012701892217 L 21.90063509461097,-12.06698729810778 A 51.821743055886294 51.821743055886294 0 0 1 36.60956655226889,-17.78457869531752 L 36.393403617374844,-18.760935999575544 A 52.821743055886294 52.821743055886294 0 0 0 21.40063509461097,-12.933012701892217 Z M 55.792591887381086,-19.403353440995694 L 55.641497190328344,-18.414834148051675 A 51.821743055886294 51.821743055886294 0 0 1 70.69647202966176,-13.68289494741067 L 69.37164402942867,-10.991272616956715 L 77.19772880075985,-11.04023333527578 L 72.4629093633059,-17.27172472134928 L 71.1380813630728,-14.580102390895323 A 52.821743055886294 52.821743055886294 0 0 0 55.792591887381086,-19.403353440995694"/><text text-anchor="middle" pointer-events="none" font-size="8px" fill="#000000" x="46.07978545544355" y="-16.48111868827658" font-family="sans-serif">trek</text></g><g class="relationship" transform="translate(-5.813807266561315 55.97886825642587) rotate(469.21489026704677)"><path class="outline" fill="#A5ABB6" stroke="none" d="M 24.018736134675446,6.953439040707552 L 24.277555179777966,5.987513214418485 A 146.1800823012232 146.1800823012232 0 0 0 37.10752595047172,8.814107734596064 L 36.936475160583726,9.799369947044454 A 147.1800823012232 147.1800823012232 0 0 1 24.018736134675446,6.953439040707552 Z M 83.36077753144194,10.42649316757894 L 83.21640315207473,9.436970030617346 A 146.1800823012232 146.1800823012232 0 0 0 96.11804459014257,6.957971288810246 L 95.42014581568273,4.040277456241885 L 103.04231332854539,5.815823120498676 L 97.04857628942236,10.848229732234726 L 96.35067751496251,7.930535899666365 A 147.1800823012232 147.1800823012232 0 0 1 83.36077753144194,10.42649316757894"/><text text-anchor="middle" pointer-events="none" font-size="8px" fill="#000000" x="60.13049568225178" y="14.455097481115246" transform="rotate(180 60.13049568225178 11.455097481115246)" font-family="sans-serif">twowheeler</text></g><g class="relationship" transform="translate(-47.72834436137013 176.2403811600213) rotate(389.69216944555694)"><path class="outline" fill="#A5ABB6" stroke="none" d="M 25 0.5 L 50.895407315811724 0.5 L 50.895407315811724 -0.5 L 25 -0.5 Z M 70.23134481581172 0.5 L 96.12675213162345 0.5 L 96.12675213162345 3.5 L 103.12675213162345 0 L 96.12675213162345 -3.5 L 96.12675213162345 -0.5 L 70.23134481581172 -0.5 Z"/><text text-anchor="middle" pointer-events="none" font-size="8px" fill="#000000" x="60.563376065811724" y="3" font-family="sans-serif">trek</text></g><g class="relationship" transform="translate(63.57526529511477 239.70668000622246) rotate(319.45500666886386)"><path class="outline" fill="#A5ABB6" stroke="none" d="M 25 0.5 L 52.16357487215706 0.5 L 52.16357487215706 -0.5 L 25 -0.5 Z M 71.49951237215706 0.5 L 98.66308724431411 0.5 L 98.66308724431411 3.5 L 105.66308724431411 0 L 98.66308724431411 -3.5 L 98.66308724431411 -0.5 L 71.49951237215706 -0.5 Z"/><text text-anchor="middle" pointer-events="none" font-size="8px" fill="#000000" x="61.83154362215706" y="3" font-family="sans-serif">trek</text></g></g><g class="layer nodes"><g class="node" transform="translate(27.104426520041525,-11.516421191922637)"><circle class="outline" cx="0" cy="0" r="25" fill="#F16667" stroke="#eb2728" stroke-width="2px"/><text text-anchor="middle" pointer-events="none" font-family="sans-serif" dy="1.5625" font-size="25" fill="#FFFFFF"/><text text-anchor="middle" pointer-events="none" x="0" y="5" font-size="10px" fill="#FFFFFF" font-family="sans-serif"> Darjeeling</text></g><g class="node" transform="translate(162.86558755418412,154.7697959457308)"><circle class="outline" cx="0" cy="0" r="25" fill="#D9C8AE" stroke="#c0a378" stroke-width="2px"/><text text-anchor="middle" pointer-events="none" font-family="sans-serif" dy="1.5625" font-size="25" fill="#2A2C34"/><text text-anchor="middle" pointer-events="none" x="0" y="5" font-size="10px" fill="#2A2C34" font-family="sans-serif"> Sandak…</text></g><g class="node" transform="translate(147.72563927153317,33.891079401245925)"><circle class="outline" cx="0" cy="0" r="25" fill="#8DCC93" stroke="#5db665" stroke-width="2px"/><text text-anchor="middle" pointer-events="none" font-family="sans-serif" dy="1.5625" font-size="25" fill="#2A2C34"/><text text-anchor="middle" pointer-events="none" x="0" y="5" font-size="10px" fill="#2A2C34" font-family="sans-serif"> Tumbling</text></g><g class="node" transform="translate(277.6256412069455,71.15464724049733)"><circle class="outline" cx="0" cy="0" r="25" fill="#8DCC93" stroke="#5db665" stroke-width="2px"/><text text-anchor="middle" pointer-events="none" font-family="sans-serif" dy="1.5625" font-size="25" fill="#2A2C34"/><text text-anchor="middle" pointer-events="none" x="0" y="5" font-size="10px" fill="#2A2C34" font-family="sans-serif"> Gairibus</text></g><g class="node" transform="translate(204.6417284503322,15.028623303726341)"><circle class="outline" cx="0" cy="0" r="25" fill="#8DCC93" stroke="#5db665" stroke-width="2px"/><text text-anchor="middle" pointer-events="none" font-family="sans-serif" dy="1.5625" font-size="25" fill="#2A2C34"/><text text-anchor="middle" pointer-events="none" x="0" y="5" font-size="10px" fill="#2A2C34" font-family="sans-serif"> BhikeBh…</text></g><g class="node" transform="translate(99.04040555830554,-52.39277212365993)"><circle class="outline" cx="0" cy="0" r="25" fill="#F16667" stroke="#eb2728" stroke-width="2px"/><text text-anchor="middle" pointer-events="none" font-family="sans-serif" dy="1.5625" font-size="25" fill="#FFFFFF"/><text text-anchor="middle" pointer-events="none" x="0" y="5" font-size="10px" fill="#FFFFFF" font-family="sans-serif"> Rimbik</text></g><g class="node" transform="translate(-5.813807266561315,55.97886825642587)"><circle class="outline" cx="0" cy="0" r="25" fill="#8DCC93" stroke="#5db665" stroke-width="2px"/><text text-anchor="middle" pointer-events="none" font-family="sans-serif" dy="1.5625" font-size="25" fill="#2A2C34"/><text text-anchor="middle" pointer-events="none" x="0" y="5" font-size="10px" fill="#2A2C34" font-family="sans-serif"> Sirikhola</text></g><g class="node" transform="translate(49.28265231510496,153.55585011477302)"><circle class="outline" cx="0" cy="0" r="25" fill="#8DCC93" stroke="#5db665" stroke-width="2px"/><text text-anchor="middle" pointer-events="none" font-family="sans-serif" dy="1.5625" font-size="25" fill="#2A2C34"/><text text-anchor="middle" pointer-events="none" x="0" y="5" font-size="10px" fill="#2A2C34" font-family="sans-serif"> Gurdum</text></g><g class="node" transform="translate(-47.72834436137013,176.2403811600213)"><circle class="outline" cx="0" cy="0" r="25" fill="#8DCC93" stroke="#5db665" stroke-width="2px"/><text text-anchor="middle" pointer-events="none" font-family="sans-serif" dy="1.5625" font-size="25" fill="#2A2C34"/><text text-anchor="middle" pointer-events="none" x="0" y="5" font-size="10px" fill="#2A2C34" font-family="sans-serif"> Rammam</text></g><g class="node" transform="translate(63.57526529511477,239.70668000622246)"><circle class="outline" cx="0" cy="0" r="25" fill="#D9C8AE" stroke="#c0a378" stroke-width="2px"/><text text-anchor="middle" pointer-events="none" font-family="sans-serif" dy="1.5625" font-size="25" fill="#2A2C34"/><text text-anchor="middle" pointer-events="none" x="0" y="5" font-size="10px" fill="#2A2C34" font-family="sans-serif"> Sabargr…</text></g></g></svg>