<svg xmlns="http://www.w3.org/2000/svg" width="553.0858154296875" height="568.4009399414062" viewBox="-162.33615112304688 -198.83871459960938 553.0858154296875 568.4009399414062"><title>Neo4j Graph Visualization</title><desc>Created using Neo4j (http://www.neo4j.com/)</desc><g class="layer relationships"><g class="relationship" transform="translate(-47.837235053455565 269.2974897069934) rotate(313.6568135754396)"><path class="outline" fill="#A5ABB6" stroke="none" d="M 25 0.5 L 63.61612771459083 0.5 L 63.61612771459083 -0.5 L 25 -0.5 Z M 98.06144021459083 0.5 L 136.67756792918166 0.5 L 136.67756792918166 3.5 L 143.67756792918166 0 L 136.67756792918166 -3.5 L 136.67756792918166 -0.5 L 98.06144021459083 -0.5 Z"/><text text-anchor="middle" pointer-events="none" font-size="8px" fill="#000000" x="80.83878396459083" y="3" font-family="sans-serif">ORIGIN</text></g><g class="relationship" transform="translate(-47.837235053455565 269.2974897069934) rotate(493.9152156354237)"><path class="outline" fill="#A5ABB6" stroke="none" d="M 25 0.5 L 27.184914833027243 0.5 L 27.184914833027243 -0.5 L 25 -0.5 Z M 64.74350858302725 0.5 L 66.92842341605449 0.5 L 66.92842341605449 3.5 L 73.92842341605449 0 L 66.92842341605449 -3.5 L 66.92842341605449 -0.5 L 64.74350858302725 -0.5 Z"/><text text-anchor="middle" pointer-events="none" font-size="8px" fill="#000000" x="45.96421170802724" y="3" transform="rotate(180 45.96421170802724 0)" font-family="sans-serif">DESTI…</text></g><g class="relationship" transform="translate(232.01719694592342 211.2009939840109) rotate(201.3695877054011)"><path class="outline" fill="#A5ABB6" stroke="none" d="M 25 0.5 L 67.01432666278427 0.5 L 67.01432666278427 -0.5 L 25 -0.5 Z M 101.45963916278427 0.5 L 143.47396582556854 0.5 L 143.47396582556854 3.5 L 150.47396582556854 0 L 143.47396582556854 -3.5 L 143.47396582556854 -0.5 L 101.45963916278427 -0.5 Z"/><text text-anchor="middle" pointer-events="none" font-size="8px" fill="#000000" x="84.23698291278427" y="3" transform="rotate(180 84.23698291278427 0)" font-family="sans-serif">ORIGIN</text></g><g class="relationship" transform="translate(232.01719694592342 211.2009939840109) rotate(423.55385401415464)"><path class="outline" fill="#A5ABB6" stroke="none" d="M 25 0.5 L 32.1231941833973 0.5 L 32.1231941833973 -0.5 L 25 -0.5 Z M 91.3106941833973 0.5 L 98.4338883667946 0.5 L 98.4338883667946 3.5 L 105.4338883667946 0 L 98.4338883667946 -3.5 L 98.4338883667946 -0.5 L 91.3106941833973 -0.5 Z"/><text text-anchor="middle" pointer-events="none" font-size="8px" fill="#000000" x="61.7169441833973" y="3" font-family="sans-serif">DESTINATION</text></g><g class="relationship" transform="translate(11.19665363884319 261.4327210475288) rotate(296.6953158617307)"><path class="outline" fill="#A5ABB6" stroke="none" d="M 25 0.5 L 43.173883802589614 0.5 L 43.173883802589614 -0.5 L 25 -0.5 Z M 77.61919630258961 0.5 L 95.79308010517923 0.5 L 95.79308010517923 3.5 L 102.79308010517923 0 L 95.79308010517923 -3.5 L 95.79308010517923 -0.5 L 77.61919630258961 -0.5 Z"/><text text-anchor="middle" pointer-events="none" font-size="8px" fill="#000000" x="60.396540052589614" y="3" font-family="sans-serif">ORIGIN</text></g><g class="relationship" transform="translate(11.19665363884319 261.4327210475288) rotate(508.20544626541937)"><path class="outline" fill="#A5ABB6" stroke="none" d="M 25 0.5 L 41.99952051231023 0.5 L 41.99952051231023 -0.5 L 25 -0.5 Z M 101.18702051231023 0.5 L 118.18654102462045 0.5 L 118.18654102462045 3.5 L 125.18654102462045 0 L 118.18654102462045 -3.5 L 118.18654102462045 -0.5 L 101.18702051231023 -0.5 Z"/><text text-anchor="middle" pointer-events="none" font-size="8px" fill="#000000" x="71.59327051231023" y="3" transform="rotate(180 71.59327051231023 0)" font-family="sans-serif">DESTINATION</text></g><g class="relationship" transform="translate(132.72780753510014 -0.5636020434727544) rotate(473.44929699406555)"><path class="outline" fill="#A5ABB6" stroke="none" d="M 25 0.5 L 59.84357463362204 0.5 L 59.84357463362204 -0.5 L 25 -0.5 Z M 94.28888713362204 0.5 L 129.13246176724408 0.5 L 129.13246176724408 3.5 L 136.13246176724408 0 L 129.13246176724408 -3.5 L 129.13246176724408 -0.5 L 94.28888713362204 -0.5 Z"/><text text-anchor="middle" pointer-events="none" font-size="8px" fill="#000000" x="77.06623088362204" y="3" transform="rotate(180 77.06623088362204 0)" font-family="sans-serif">ORIGIN</text></g><g class="relationship" transform="translate(132.72780753510014 -0.5636020434727544) rotate(293.398277872883)"><path class="outline" fill="#A5ABB6" stroke="none" d="M 25 0.5 L 44.751596306737525 0.5 L 44.751596306737525 -0.5 L 25 -0.5 Z M 103.93909630673753 0.5 L 123.69069261347505 0.5 L 123.69069261347505 3.5 L 130.69069261347505 0 L 123.69069261347505 -3.5 L 123.69069261347505 -0.5 L 103.93909630673753 -0.5 Z"/><text text-anchor="middle" pointer-events="none" font-size="8px" fill="#000000" x="74.34534630673753" y="3" font-family="sans-serif">DESTINATION</text></g><g class="relationship" transform="translate(173.10104528744728 221.94876474551776) rotate(215.5554437742863)"><path class="outline" fill="#A5ABB6" stroke="none" d="M 25 0.5 L 43.49801548484322 0.5 L 43.49801548484322 -0.5 L 25 -0.5 Z M 77.94332798484322 0.5 L 96.44134346968644 0.5 L 96.44134346968644 3.5 L 103.44134346968644 0 L 96.44134346968644 -3.5 L 96.44134346968644 -0.5 L 77.94332798484322 -0.5 Z"/><text text-anchor="middle" pointer-events="none" font-size="8px" fill="#000000" x="60.72067173484322" y="3" transform="rotate(180 60.72067173484322 0)" font-family="sans-serif">ORIGIN</text></g><g class="relationship" transform="translate(173.10104528744728 221.94876474551776) rotate(402.18450038541647)"><path class="outline" fill="#A5ABB6" stroke="none" d="M 25 0.5 L 45.85894228873404 0.5 L 45.85894228873404 -0.5 L 25 -0.5 Z M 105.04644228873404 0.5 L 125.90538457746808 0.5 L 125.90538457746808 3.5 L 132.90538457746808 0 L 125.90538457746808 -3.5 L 125.90538457746808 -0.5 L 105.04644228873404 -0.5 Z"/><text text-anchor="middle" pointer-events="none" font-size="8px" fill="#000000" x="75.45269228873404" y="3" font-family="sans-serif">DESTINATION</text></g><g class="relationship" transform="translate(-59.527045660921694 9.00446202136398) rotate(407.17614901134664)"><path class="outline" fill="#A5ABB6" stroke="none" d="M 25 0.5 L 73.52879645668932 0.5 L 73.52879645668932 -0.5 L 25 -0.5 Z M 107.97410895668932 0.5 L 156.50290541337864 0.5 L 156.50290541337864 3.5 L 163.50290541337864 0 L 156.50290541337864 -3.5 L 156.50290541337864 -0.5 L 107.97410895668932 -0.5 Z"/><text text-anchor="middle" pointer-events="none" font-size="8px" fill="#000000" x="90.75145270668932" y="3" font-family="sans-serif">ORIGIN</text></g><g class="relationship" transform="translate(-59.527045660921694 9.00446202136398) rotate(222.56841798387472)"><path class="outline" fill="#A5ABB6" stroke="none" d="M 25 0.5 L 27.830753050638158 0.5 L 27.830753050638158 -0.5 L 25 -0.5 Z M 65.38934680063815 0.5 L 68.22009985127632 0.5 L 68.22009985127632 3.5 L 75.22009985127632 0 L 68.22009985127632 -3.5 L 68.22009985127632 -0.5 L 65.38934680063815 -0.5 Z"/><text text-anchor="middle" pointer-events="none" font-size="8px" fill="#000000" x="46.61004992563816" y="3" transform="rotate(180 46.61004992563816 0)" font-family="sans-serif">DESTI…</text></g><g class="relationship" transform="translate(-12.038718386858669 317.12001557458825) rotate(295.3975421305175)"><path class="outline" fill="#A5ABB6" stroke="none" d="M 25 0.5 L 73.29293877035138 0.5 L 73.29293877035138 -0.5 L 25 -0.5 Z M 107.73825127035138 0.5 L 156.03119004070277 0.5 L 156.03119004070277 3.5 L 163.03119004070277 0 L 156.03119004070277 -3.5 L 156.03119004070277 -0.5 L 107.73825127035138 -0.5 Z"/><text text-anchor="middle" pointer-events="none" font-size="8px" fill="#000000" x="90.51559502035138" y="3" font-family="sans-serif">ORIGIN</text></g><g class="relationship" transform="translate(-12.038718386858669 317.12001557458825) rotate(527.3462788922291)"><path class="outline" fill="#A5ABB6" stroke="none" d="M 25 0.5 L 25.670945406949627 0.5 L 25.670945406949627 -0.5 L 25 -0.5 Z M 74.34282040694963 0.5 L 75.01376581389925 0.5 L 75.01376581389925 3.5 L 82.01376581389925 0 L 75.01376581389925 -3.5 L 75.01376581389925 -0.5 L 74.34282040694963 -0.5 Z"/><text text-anchor="middle" pointer-events="none" font-size="8px" fill="#000000" x="50.00688290694963" y="3" transform="rotate(180 50.00688290694963 0)" font-family="sans-serif">DESTINA…</text></g><g class="relationship" transform="translate(221.25180981807966 80.76908659357358) rotate(516.4619773202362)"><path class="outline" fill="#A5ABB6" stroke="none" d="M 25 0.5 L 62.52637368576977 0.5 L 62.52637368576977 -0.5 L 25 -0.5 Z M 96.97168618576977 0.5 L 134.49805987153954 0.5 L 134.49805987153954 3.5 L 141.49805987153954 0 L 134.49805987153954 -3.5 L 134.49805987153954 -0.5 L 96.97168618576977 -0.5 Z"/><text text-anchor="middle" pointer-events="none" font-size="8px" fill="#000000" x="79.74902993576977" y="3" transform="rotate(180 79.74902993576977 0)" font-family="sans-serif">ORIGIN</text></g><g class="relationship" transform="translate(221.25180981807966 80.76908659357358) rotate(362.5905016753866)"><path class="outline" fill="#A5ABB6" stroke="none" d="M 25 0.5 L 37.22705595237491 0.5 L 37.22705595237491 -0.5 L 25 -0.5 Z M 96.41455595237491 0.5 L 108.64161190474982 0.5 L 108.64161190474982 3.5 L 115.64161190474982 0 L 108.64161190474982 -3.5 L 108.64161190474982 -0.5 L 96.41455595237491 -0.5 Z"/><text text-anchor="middle" pointer-events="none" font-size="8px" fill="#000000" x="66.82080595237491" y="3" font-family="sans-serif">DESTINATION</text></g><g class="relationship" transform="translate(-43.32913240875671 209.7448692695542) rotate(330.82948188321046)"><path class="outline" fill="#A5ABB6" stroke="none" d="M 25 0.5 L 43.37478607988511 0.5 L 43.37478607988511 -0.5 L 25 -0.5 Z M 77.82009857988511 0.5 L 96.19488465977022 0.5 L 96.19488465977022 3.5 L 103.19488465977022 0 L 96.19488465977022 -3.5 L 96.19488465977022 -0.5 L 77.82009857988511 -0.5 Z"/><text text-anchor="middle" pointer-events="none" font-size="8px" fill="#000000" x="60.59744232988511" y="3" font-family="sans-serif">ORIGIN</text></g><g class="relationship" transform="translate(-43.32913240875671 209.7448692695542) rotate(479.2042763209185)"><path class="outline" fill="#A5ABB6" stroke="none" d="M 25 0.5 L 41.8401113734933 0.5 L 41.8401113734933 -0.5 L 25 -0.5 Z M 101.0276113734933 0.5 L 117.8677227469866 0.5 L 117.8677227469866 3.5 L 124.8677227469866 0 L 117.8677227469866 -3.5 L 117.8677227469866 -0.5 L 101.0276113734933 -0.5 Z"/><text text-anchor="middle" pointer-events="none" font-size="8px" fill="#000000" x="71.4338613734933" y="3" transform="rotate(180 71.4338613734933 0)" font-family="sans-serif">DESTINATION</text></g><g class="relationship" transform="translate(46.97024370547061 309.5381783619416) rotate(277.5946516835502)"><path class="outline" fill="#A5ABB6" stroke="none" d="M 25 0.5 L 61.1338147167702 0.5 L 61.1338147167702 -0.5 L 25 -0.5 Z M 95.5791272167702 0.5 L 131.7129419335404 0.5 L 131.7129419335404 3.5 L 138.7129419335404 0 L 131.7129419335404 -3.5 L 131.7129419335404 -0.5 L 95.5791272167702 -0.5 Z"/><text text-anchor="middle" pointer-events="none" font-size="8px" fill="#000000" x="78.3564709667702" y="3" font-family="sans-serif">ORIGIN</text></g><g class="relationship" transform="translate(46.97024370547061 309.5381783619416) rotate(529.2509658401125)"><path class="outline" fill="#A5ABB6" stroke="none" d="M 25 0.5 L 50.07738693644973 0.5 L 50.07738693644973 -0.5 L 25 -0.5 Z M 109.26488693644973 0.5 L 134.34227387289945 0.5 L 134.34227387289945 3.5 L 141.34227387289945 0 L 134.34227387289945 -3.5 L 134.34227387289945 -0.5 L 109.26488693644973 -0.5 Z"/><text text-anchor="middle" pointer-events="none" font-size="8px" fill="#000000" x="79.67113693644973" y="3" transform="rotate(180 79.67113693644973 0)" font-family="sans-serif">DESTINATION</text></g><g class="relationship" transform="translate(183.0530213382547 34.38571981354257) rotate(495.3957627058014)"><path class="outline" fill="#A5ABB6" stroke="none" d="M 25 0.5 L 59.64953706238205 0.5 L 59.64953706238205 -0.5 L 25 -0.5 Z M 94.09484956238205 0.5 L 128.7443866247641 0.5 L 128.7443866247641 3.5 L 135.7443866247641 0 L 128.7443866247641 -3.5 L 128.7443866247641 -0.5 L 94.09484956238205 -0.5 Z"/><text text-anchor="middle" pointer-events="none" font-size="8px" fill="#000000" x="76.87219331238205" y="3" transform="rotate(180 76.87219331238205 0)" font-family="sans-serif">ORIGIN</text></g><g class="relationship" transform="translate(183.0530213382547 34.38571981354257) rotate(320.75812258962213)"><path class="outline" fill="#A5ABB6" stroke="none" d="M 25 0.5 L 45.876699627772325 0.5 L 45.876699627772325 -0.5 L 25 -0.5 Z M 105.06419962777233 0.5 L 125.94089925554465 0.5 L 125.94089925554465 3.5 L 132.94089925554465 0 L 125.94089925554465 -3.5 L 125.94089925554465 -0.5 L 105.06419962777233 -0.5 Z"/><text text-anchor="middle" pointer-events="none" font-size="8px" fill="#000000" x="75.47044962777233" y="3" font-family="sans-serif">DESTINATION</text></g><g class="relationship" transform="translate(-1.6363197415307706 -5.844459583040123) rotate(425.3547895815592)"><path class="outline" fill="#A5ABB6" stroke="none" d="M 25 0.5 L 63.50254291835331 0.5 L 63.50254291835331 -0.5 L 25 -0.5 Z M 97.94785541835331 0.5 L 136.45039833670663 0.5 L 136.45039833670663 3.5 L 143.45039833670663 0 L 136.45039833670663 -3.5 L 136.45039833670663 -0.5 L 97.94785541835331 -0.5 Z"/><text text-anchor="middle" pointer-events="none" font-size="8px" fill="#000000" x="80.72519916835331" y="3" font-family="sans-serif">ORIGIN</text></g><g class="relationship" transform="translate(-1.6363197415307706 -5.844459583040123) rotate(201.90149404973835)"><path class="outline" fill="#A5ABB6" stroke="none" d="M 25 0.5 L 37.87847734326567 0.5 L 37.87847734326567 -0.5 L 25 -0.5 Z M 97.06597734326567 0.5 L 109.94445468653134 0.5 L 109.94445468653134 3.5 L 116.94445468653134 0 L 109.94445468653134 -3.5 L 109.94445468653134 -0.5 L 97.06597734326567 -0.5 Z"/><text text-anchor="middle" pointer-events="none" font-size="8px" fill="#000000" x="67.47222734326567" y="3" transform="rotate(180 67.47222734326567 0)" font-family="sans-serif">DESTINATION</text></g><g class="relationship" transform="translate(-27.143328630444895 58.87584214511386) rotate(402.70952563248795)"><path class="outline" fill="#A5ABB6" stroke="none" d="M 25 0.5 L 44.43130928580098 0.5 L 44.43130928580098 -0.5 L 25 -0.5 Z M 78.87662178580098 0.5 L 98.30793107160196 0.5 L 98.30793107160196 3.5 L 105.30793107160196 0 L 98.30793107160196 -3.5 L 98.30793107160196 -0.5 L 78.87662178580098 -0.5 Z"/><text text-anchor="middle" pointer-events="none" font-size="8px" fill="#000000" x="61.65396553580098" y="3" font-family="sans-serif">ORIGIN</text></g><g class="relationship" transform="translate(-27.143328630444895 58.87584214511386) rotate(227.93425830625728)"><path class="outline" fill="#A5ABB6" stroke="none" d="M 25 0.5 L 46.15665210410906 0.5 L 46.15665210410906 -0.5 L 25 -0.5 Z M 105.34415210410906 0.5 L 126.50080420821811 0.5 L 126.50080420821811 3.5 L 133.5008042082181 0 L 126.50080420821811 -3.5 L 126.50080420821811 -0.5 L 105.34415210410906 -0.5 Z"/><text text-anchor="middle" pointer-events="none" font-size="8px" fill="#000000" x="75.75040210410906" y="3" transform="rotate(180 75.75040210410906 0)" font-family="sans-serif">DESTINATION</text></g><g class="relationship" transform="translate(71.0221830794023 -14.723383575713669) rotate(450.85415032067607)"><path class="outline" fill="#A5ABB6" stroke="none" d="M 25 0.5 L 60.2787091434671 0.5 L 60.2787091434671 -0.5 L 25 -0.5 Z M 94.7240216434671 0.5 L 130.0027307869342 0.5 L 130.0027307869342 3.5 L 137.0027307869342 0 L 130.0027307869342 -3.5 L 130.0027307869342 -0.5 L 94.7240216434671 -0.5 Z"/><text text-anchor="middle" pointer-events="none" font-size="8px" fill="#000000" x="77.5013653934671" y="3" transform="rotate(180 77.5013653934671 0)" font-family="sans-serif">ORIGIN</text></g><g class="relationship" transform="translate(71.0221830794023 -14.723383575713669) rotate(266.26276747045284)"><path class="outline" fill="#A5ABB6" stroke="none" d="M 25 0.5 L 44.62919652063374 0.5 L 44.62919652063374 -0.5 L 25 -0.5 Z M 103.81669652063374 0.5 L 123.44589304126748 0.5 L 123.44589304126748 3.5 L 130.44589304126748 0 L 123.44589304126748 -3.5 L 123.44589304126748 -0.5 L 103.81669652063374 -0.5 Z"/><text text-anchor="middle" pointer-events="none" font-size="8px" fill="#000000" x="74.22294652063374" y="3" transform="rotate(180 74.22294652063374 0)" font-family="sans-serif">DESTINATION</text></g><g class="relationship" transform="translate(-97.74412792918199 235.91758102360194) rotate(331.9448013526554)"><path class="outline" fill="#A5ABB6" stroke="none" d="M 25 0.5 L 73.52792102345961 0.5 L 73.52792102345961 -0.5 L 25 -0.5 Z M 107.97323352345961 0.5 L 156.50115454691922 0.5 L 156.50115454691922 3.5 L 163.50115454691922 0 L 156.50115454691922 -3.5 L 156.50115454691922 -0.5 L 107.97323352345961 -0.5 Z"/><text text-anchor="middle" pointer-events="none" font-size="8px" fill="#000000" x="90.75057727345961" y="3" font-family="sans-serif">ORIGIN</text></g><g class="relationship" transform="translate(-97.74412792918199 235.91758102360194) rotate(460.13668172061415)"><path class="outline" fill="#A5ABB6" stroke="none" d="M 25 0.5 L 25.316065152327084 0.5 L 25.316065152327084 -0.5 L 25 -0.5 Z M 73.98794015232708 0.5 L 74.30400530465417 0.5 L 74.30400530465417 3.5 L 81.30400530465417 0 L 74.30400530465417 -3.5 L 74.30400530465417 -0.5 L 73.98794015232708 -0.5 Z"/><text text-anchor="middle" pointer-events="none" font-size="8px" fill="#000000" x="49.652002652327084" y="3" transform="rotate(180 49.652002652327084 0)" font-family="sans-serif">DESTINA…</text></g><g class="relationship" transform="translate(151.6313151988872 293.8183663997578) rotate(240.46856951637045)"><path class="outline" fill="#A5ABB6" stroke="none" d="M 25 0.5 L 63.497245708592274 0.5 L 63.497245708592274 -0.5 L 25 -0.5 Z M 97.94255820859227 0.5 L 136.43980391718455 0.5 L 136.43980391718455 3.5 L 143.43980391718455 0 L 136.43980391718455 -3.5 L 136.43980391718455 -0.5 L 97.94255820859227 -0.5 Z"/><text text-anchor="middle" pointer-events="none" font-size="8px" fill="#000000" x="80.71990195859227" y="3" transform="rotate(180 80.71990195859227 0)" font-family="sans-serif">ORIGIN</text></g><g class="relationship" transform="translate(151.6313151988872 293.8183663997578) rotate(373.86016174079555)"><path class="outline" fill="#A5ABB6" stroke="none" d="M 25 0.5 L 38.220411504010556 0.5 L 38.220411504010556 -0.5 L 25 -0.5 Z M 97.40791150401056 0.5 L 110.62832300802111 0.5 L 110.62832300802111 3.5 L 117.62832300802111 0 L 110.62832300802111 -3.5 L 110.62832300802111 -0.5 L 97.40791150401056 -0.5 Z"/><text text-anchor="middle" pointer-events="none" font-size="8px" fill="#000000" x="67.81416150401056" y="3" font-family="sans-serif">DESTINATION</text></g><g class="relationship" transform="translate(-86.42057730212579 67.21628380574938) rotate(387.3085415853997)"><path class="outline" fill="#A5ABB6" stroke="none" d="M 25 0.5 L 66.51382847675002 0.5 L 66.51382847675002 -0.5 L 25 -0.5 Z M 100.95914097675002 0.5 L 142.47296945350004 0.5 L 142.47296945350004 3.5 L 149.47296945350004 0 L 142.47296945350004 -3.5 L 142.47296945350004 -0.5 L 100.95914097675002 -0.5 Z"/><text text-anchor="middle" pointer-events="none" font-size="8px" fill="#000000" x="83.73648472675002" y="3" font-family="sans-serif">ORIGIN</text></g><g class="relationship" transform="translate(-86.42057730212579 67.21628380574938) rotate(249.57854433426076)"><path class="outline" fill="#A5ABB6" stroke="none" d="M 25 0.5 L 34.13536896949013 0.5 L 34.13536896949013 -0.5 L 25 -0.5 Z M 93.32286896949013 0.5 L 102.45823793898026 0.5 L 102.45823793898026 3.5 L 109.45823793898026 0 L 102.45823793898026 -3.5 L 102.45823793898026 -0.5 L 93.32286896949013 -0.5 Z"/><text text-anchor="middle" pointer-events="none" font-size="8px" fill="#000000" x="63.72911896949013" y="3" transform="rotate(180 63.72911896949013 0)" font-family="sans-serif">DESTINATION</text></g><g class="relationship" transform="translate(-93.23094283120712 176.66643909780012) rotate(349.70201446648)"><path class="outline" fill="#A5ABB6" stroke="none" d="M 25 0.5 L 61.521244878880196 0.5 L 61.521244878880196 -0.5 L 25 -0.5 Z M 95.9665573788802 0.5 L 132.4878022577604 0.5 L 132.4878022577604 3.5 L 139.4878022577604 0 L 132.4878022577604 -3.5 L 132.4878022577604 -0.5 L 95.9665573788802 -0.5 Z"/><text text-anchor="middle" pointer-events="none" font-size="8px" fill="#000000" x="78.7439011288802" y="3" font-family="sans-serif">ORIGIN</text></g><g class="relationship" transform="translate(-93.23094283120712 176.66643909780012) rotate(458.06454693059504)"><path class="outline" fill="#A5ABB6" stroke="none" d="M 25 0.5 L 49.672664055629696 0.5 L 49.672664055629696 -0.5 L 25 -0.5 Z M 108.8601640556297 0.5 L 133.5328281112594 0.5 L 133.5328281112594 3.5 L 140.5328281112594 0 L 133.5328281112594 -3.5 L 133.5328281112594 -0.5 L 108.8601640556297 -0.5 Z"/><text text-anchor="middle" pointer-events="none" font-size="8px" fill="#000000" x="79.2664140556297" y="3" transform="rotate(180 79.2664140556297 0)" font-family="sans-serif">DESTINATION</text></g><g class="relationship" transform="translate(233.67282994091116 139.22853360993307) rotate(537.2139362480152)"><path class="outline" fill="#A5ABB6" stroke="none" d="M 25 0.5 L 61.9078394738774 0.5 L 61.9078394738774 -0.5 L 25 -0.5 Z M 96.3531519738774 0.5 L 133.2609914477548 0.5 L 133.2609914477548 3.5 L 140.2609914477548 0 L 133.2609914477548 -3.5 L 133.2609914477548 -0.5 L 96.3531519738774 -0.5 Z"/><text text-anchor="middle" pointer-events="none" font-size="8px" fill="#000000" x="79.1304957238774" y="3" transform="rotate(180 79.1304957238774 0)" font-family="sans-serif">ORIGIN</text></g><g class="relationship" transform="translate(233.67282994091116 139.22853360993307) rotate(337.8630687221637)"><path class="outline" fill="#A5ABB6" stroke="none" d="M 25 0.5 L 36.040877863043036 0.5 L 36.040877863043036 -0.5 L 25 -0.5 Z M 95.22837786304304 0.5 L 106.26925572608607 0.5 L 106.26925572608607 3.5 L 113.26925572608607 0 L 106.26925572608607 -3.5 L 106.26925572608607 -0.5 L 95.22837786304304 -0.5 Z"/><text text-anchor="middle" pointer-events="none" font-size="8px" fill="#000000" x="65.63462786304304" y="3" font-family="sans-serif">DESTINATION</text></g><g class="relationship" transform="translate(206.83237773258725 270.94058457672503) rotate(221.8211046980872)"><path class="outline" fill="#A5ABB6" stroke="none" d="M 25 0.5 L 72.01724854610679 0.5 L 72.01724854610679 -0.5 L 25 -0.5 Z M 106.46256104610679 0.5 L 153.47980959221357 0.5 L 153.47980959221357 3.5 L 160.47980959221357 0 L 153.47980959221357 -3.5 L 153.47980959221357 -0.5 L 106.46256104610679 -0.5 Z"/><text text-anchor="middle" pointer-events="none" font-size="8px" fill="#000000" x="89.23990479610679" y="3" transform="rotate(180 89.23990479610679 0)" font-family="sans-serif">ORIGIN</text></g><g class="relationship" transform="translate(206.83237773258725 270.94058457672503) rotate(394.412019828491)"><path class="outline" fill="#A5ABB6" stroke="none" d="M 25 0.5 L 25.301667848044318 0.5 L 25.301667848044318 -0.5 L 25 -0.5 Z M 68.63760534804432 0.5 L 68.93927319608864 0.5 L 68.93927319608864 3.5 L 75.93927319608864 0 L 68.93927319608864 -3.5 L 68.93927319608864 -0.5 L 68.63760534804432 -0.5 Z"/><text text-anchor="middle" pointer-events="none" font-size="8px" fill="#000000" x="46.96963659804432" y="3" font-family="sans-serif">DESTIN…</text></g></g><g class="layer nodes"><g class="node" transform="translate(68.60717868861907,147.2613457546043)"><circle class="outline" cx="0" cy="0" r="25" fill="#ECB5C9" stroke="#da7298" stroke-width="2px"/><text text-anchor="middle" pointer-events="none" font-family="sans-serif" dy="1.5625" font-size="25" fill="#2A2C34"/><text text-anchor="middle" pointer-events="none" x="0" y="5" font-size="10px" fill="#2A2C34" font-family="sans-serif"> LAX</text></g><g class="node" transform="translate(-116.45331241841032,340.56225580239783)"><circle class="outline" cx="0" cy="0" r="25" fill="#ECB5C9" stroke="#da7298" stroke-width="2px"/><text text-anchor="middle" pointer-events="none" font-family="sans-serif" dy="1.5625" font-size="25" fill="#2A2C34"/><text text-anchor="middle" pointer-events="none" x="0" y="5" font-size="10px" fill="#2A2C34" font-family="sans-serif"> ABQ</text></g><g class="node" transform="translate(290.1067692027769,327.9854143040914)"><circle class="outline" cx="0" cy="0" r="25" fill="#ECB5C9" stroke="#da7298" stroke-width="2px"/><text text-anchor="middle" pointer-events="none" font-family="sans-serif" dy="1.5625" font-size="25" fill="#2A2C34"/><text text-anchor="middle" pointer-events="none" x="0" y="5" font-size="10px" fill="#2A2C34" font-family="sans-serif"> SMF</text></g><g class="node" transform="translate(194.55574298023197,-143.45131377914365)"><circle class="outline" cx="0" cy="0" r="25" fill="#ECB5C9" stroke="#da7298" stroke-width="2px"/><text text-anchor="middle" pointer-events="none" font-family="sans-serif" dy="1.5625" font-size="25" fill="#2A2C34"/><text text-anchor="middle" pointer-events="none" x="0" y="5" font-size="10px" fill="#2A2C34" font-family="sans-serif"> EWR</text></g><g class="node" transform="translate(-133.3361502342766,-58.79144121975637)"><circle class="outline" cx="0" cy="0" r="25" fill="#ECB5C9" stroke="#da7298" stroke-width="2px"/><text text-anchor="middle" pointer-events="none" font-family="sans-serif" dy="1.5625" font-size="25" fill="#2A2C34"/><text text-anchor="middle" pointer-events="none" x="0" y="5" font-size="10px" fill="#2A2C34" font-family="sans-serif"> FAT</text></g><g class="node" transform="translate(361.7496967131435,87.12571912881668)"><circle class="outline" cx="0" cy="0" r="25" fill="#ECB5C9" stroke="#da7298" stroke-width="2px"/><text text-anchor="middle" pointer-events="none" font-family="sans-serif" dy="1.5625" font-size="25" fill="#2A2C34"/><text text-anchor="middle" pointer-events="none" x="0" y="5" font-size="10px" fill="#2A2C34" font-family="sans-serif"> TUS</text></g><g class="node" transform="translate(305.37545736891434,-65.52698859322258)"><circle class="outline" cx="0" cy="0" r="25" fill="#ECB5C9" stroke="#da7298" stroke-width="2px"/><text text-anchor="middle" pointer-events="none" font-family="sans-serif" dy="1.5625" font-size="25" fill="#2A2C34"/><text text-anchor="middle" pointer-events="none" x="0" y="5" font-size="10px" fill="#2A2C34" font-family="sans-serif"> IAH</text></g><g class="node" transform="translate(60.89010002833113,-169.83871665546877)"><circle class="outline" cx="0" cy="0" r="25" fill="#ECB5C9" stroke="#da7298" stroke-width="2px"/><text text-anchor="middle" pointer-events="none" font-family="sans-serif" dy="1.5625" font-size="25" fill="#2A2C34"/><text text-anchor="middle" pointer-events="none" x="0" y="5" font-size="10px" fill="#2A2C34" font-family="sans-serif"> LAS</text></g><g class="node" transform="translate(-47.837235053455565,269.2974897069934)"><circle class="outline" cx="0" cy="0" r="25" fill="#4C8EDA" stroke="#2870c2" stroke-width="2px"/><text text-anchor="middle" pointer-events="none" font-family="sans-serif" dy="1.5625" font-size="25" fill="#FFFFFF"/><text text-anchor="middle" pointer-events="none" x="0" y="5" font-size="10px" fill="#FFFFFF" font-family="sans-serif"> 11/4/2015</text></g><g class="node" transform="translate(232.01719694592342,211.2009939840109)"><circle class="outline" cx="0" cy="0" r="25" fill="#4C8EDA" stroke="#2870c2" stroke-width="2px"/><text text-anchor="middle" pointer-events="none" font-family="sans-serif" dy="1.5625" font-size="25" fill="#FFFFFF"/><text text-anchor="middle" pointer-events="none" x="0" y="5" font-size="10px" fill="#FFFFFF" font-family="sans-serif"> 11/2/2015</text></g><g class="node" transform="translate(11.19665363884319,261.4327210475288)"><circle class="outline" cx="0" cy="0" r="25" fill="#4C8EDA" stroke="#2870c2" stroke-width="2px"/><text text-anchor="middle" pointer-events="none" font-family="sans-serif" dy="1.5625" font-size="25" fill="#FFFFFF"/><text text-anchor="middle" pointer-events="none" x="0" y="5" font-size="10px" fill="#FFFFFF" font-family="sans-serif"> 11/1/2015</text></g><g class="node" transform="translate(132.72780753510014,-0.5636020434727544)"><circle class="outline" cx="0" cy="0" r="25" fill="#4C8EDA" stroke="#2870c2" stroke-width="2px"/><text text-anchor="middle" pointer-events="none" font-family="sans-serif" dy="1.5625" font-size="25" fill="#FFFFFF"/><text text-anchor="middle" pointer-events="none" x="0" y="5" font-size="10px" fill="#FFFFFF" font-family="sans-serif"> 11/29/20…</text></g><g class="node" transform="translate(173.10104528744728,221.94876474551776)"><circle class="outline" cx="0" cy="0" r="25" fill="#4C8EDA" stroke="#2870c2" stroke-width="2px"/><text text-anchor="middle" pointer-events="none" font-family="sans-serif" dy="1.5625" font-size="25" fill="#FFFFFF"/><text text-anchor="middle" pointer-events="none" x="0" y="5" font-size="10px" fill="#FFFFFF" font-family="sans-serif"> 11/4/2015</text></g><g class="node" transform="translate(-59.527045660921694,9.00446202136398)"><circle class="outline" cx="0" cy="0" r="25" fill="#4C8EDA" stroke="#2870c2" stroke-width="2px"/><text text-anchor="middle" pointer-events="none" font-family="sans-serif" dy="1.5625" font-size="25" fill="#FFFFFF"/><text text-anchor="middle" pointer-events="none" x="0" y="5" font-size="10px" fill="#FFFFFF" font-family="sans-serif"> 11/3/2015</text></g><g class="node" transform="translate(-12.038718386858669,317.12001557458825)"><circle class="outline" cx="0" cy="0" r="25" fill="#4C8EDA" stroke="#2870c2" stroke-width="2px"/><text text-anchor="middle" pointer-events="none" font-family="sans-serif" dy="1.5625" font-size="25" fill="#FFFFFF"/><text text-anchor="middle" pointer-events="none" x="0" y="5" font-size="10px" fill="#FFFFFF" font-family="sans-serif"> 11/3/2015</text></g><g class="node" transform="translate(221.25180981807966,80.76908659357358)"><circle class="outline" cx="0" cy="0" r="25" fill="#4C8EDA" stroke="#2870c2" stroke-width="2px"/><text text-anchor="middle" pointer-events="none" font-family="sans-serif" dy="1.5625" font-size="25" fill="#FFFFFF"/><text text-anchor="middle" pointer-events="none" x="0" y="5" font-size="10px" fill="#FFFFFF" font-family="sans-serif"> 11/2/2015</text></g><g class="node" transform="translate(-43.32913240875671,209.7448692695542)"><circle class="outline" cx="0" cy="0" r="25" fill="#4C8EDA" stroke="#2870c2" stroke-width="2px"/><text text-anchor="middle" pointer-events="none" font-family="sans-serif" dy="1.5625" font-size="25" fill="#FFFFFF"/><text text-anchor="middle" pointer-events="none" x="0" y="5" font-size="10px" fill="#FFFFFF" font-family="sans-serif"> 11/1/2015</text></g><g class="node" transform="translate(46.97024370547061,309.5381783619416)"><circle class="outline" cx="0" cy="0" r="25" fill="#4C8EDA" stroke="#2870c2" stroke-width="2px"/><text text-anchor="middle" pointer-events="none" font-family="sans-serif" dy="1.5625" font-size="25" fill="#FFFFFF"/><text text-anchor="middle" pointer-events="none" x="0" y="5" font-size="10px" fill="#FFFFFF" font-family="sans-serif"> 11/2/2015</text></g><g class="node" transform="translate(183.0530213382547,34.38571981354257)"><circle class="outline" cx="0" cy="0" r="25" fill="#4C8EDA" stroke="#2870c2" stroke-width="2px"/><text text-anchor="middle" pointer-events="none" font-family="sans-serif" dy="1.5625" font-size="25" fill="#FFFFFF"/><text text-anchor="middle" pointer-events="none" x="0" y="5" font-size="10px" fill="#FFFFFF" font-family="sans-serif"> 11/30/20…</text></g><g class="node" transform="translate(-1.6363197415307706,-5.844459583040123)"><circle class="outline" cx="0" cy="0" r="25" fill="#4C8EDA" stroke="#2870c2" stroke-width="2px"/><text text-anchor="middle" pointer-events="none" font-family="sans-serif" dy="1.5625" font-size="25" fill="#FFFFFF"/><text text-anchor="middle" pointer-events="none" x="0" y="5" font-size="10px" fill="#FFFFFF" font-family="sans-serif"> 11/1/2015</text></g><g class="node" transform="translate(-27.143328630444895,58.87584214511386)"><circle class="outline" cx="0" cy="0" r="25" fill="#4C8EDA" stroke="#2870c2" stroke-width="2px"/><text text-anchor="middle" pointer-events="none" font-family="sans-serif" dy="1.5625" font-size="25" fill="#FFFFFF"/><text text-anchor="middle" pointer-events="none" x="0" y="5" font-size="10px" fill="#FFFFFF" font-family="sans-serif"> 11/2/2015</text></g><g class="node" transform="translate(71.0221830794023,-14.723383575713669)"><circle class="outline" cx="0" cy="0" r="25" fill="#4C8EDA" stroke="#2870c2" stroke-width="2px"/><text text-anchor="middle" pointer-events="none" font-family="sans-serif" dy="1.5625" font-size="25" fill="#FFFFFF"/><text text-anchor="middle" pointer-events="none" x="0" y="5" font-size="10px" fill="#FFFFFF" font-family="sans-serif"> 11/29/20…</text></g><g class="node" transform="translate(-97.74412792918199,235.91758102360194)"><circle class="outline" cx="0" cy="0" r="25" fill="#4C8EDA" stroke="#2870c2" stroke-width="2px"/><text text-anchor="middle" pointer-events="none" font-family="sans-serif" dy="1.5625" font-size="25" fill="#FFFFFF"/><text text-anchor="middle" pointer-events="none" x="0" y="5" font-size="10px" fill="#FFFFFF" font-family="sans-serif"> 11/2/2015</text></g><g class="node" transform="translate(151.6313151988872,293.8183663997578)"><circle class="outline" cx="0" cy="0" r="25" fill="#4C8EDA" stroke="#2870c2" stroke-width="2px"/><text text-anchor="middle" pointer-events="none" font-family="sans-serif" dy="1.5625" font-size="25" fill="#FFFFFF"/><text text-anchor="middle" pointer-events="none" x="0" y="5" font-size="10px" fill="#FFFFFF" font-family="sans-serif"> 11/1/2015</text></g><g class="node" transform="translate(-86.42057730212579,67.21628380574938)"><circle class="outline" cx="0" cy="0" r="25" fill="#4C8EDA" stroke="#2870c2" stroke-width="2px"/><text text-anchor="middle" pointer-events="none" font-family="sans-serif" dy="1.5625" font-size="25" fill="#FFFFFF"/><text text-anchor="middle" pointer-events="none" x="0" y="5" font-size="10px" fill="#FFFFFF" font-family="sans-serif"> 11/4/2015</text></g><g class="node" transform="translate(-93.23094283120712,176.66643909780012)"><circle class="outline" cx="0" cy="0" r="25" fill="#4C8EDA" stroke="#2870c2" stroke-width="2px"/><text text-anchor="middle" pointer-events="none" font-family="sans-serif" dy="1.5625" font-size="25" fill="#FFFFFF"/><text text-anchor="middle" pointer-events="none" x="0" y="5" font-size="10px" fill="#FFFFFF" font-family="sans-serif"> 11/3/2015</text></g><g class="node" transform="translate(233.67282994091116,139.22853360993307)"><circle class="outline" cx="0" cy="0" r="25" fill="#4C8EDA" stroke="#2870c2" stroke-width="2px"/><text text-anchor="middle" pointer-events="none" font-family="sans-serif" dy="1.5625" font-size="25" fill="#FFFFFF"/><text text-anchor="middle" pointer-events="none" x="0" y="5" font-size="10px" fill="#FFFFFF" font-family="sans-serif"> 11/1/2015</text></g><g class="node" transform="translate(206.83237773258725,270.94058457672503)"><circle class="outline" cx="0" cy="0" r="25" fill="#4C8EDA" stroke="#2870c2" stroke-width="2px"/><text text-anchor="middle" pointer-events="none" font-family="sans-serif" dy="1.5625" font-size="25" fill="#FFFFFF"/><text text-anchor="middle" pointer-events="none" x="0" y="5" font-size="10px" fill="#FFFFFF" font-family="sans-serif"> 11/3/2015</text></g></g></svg>